#!OML:ASF E:/inclinewalkrobotboard/Project1/Captureday1/Session1/subject1.ASF
:FULLY-SPECIFIED
:DEGREES
251
root 0 0 0 -3.231297572557913 -38.64318807698301 1.5536785244812328
lowerback 15.101534141287575 0.1461272996590124 0.2829352156264806
upperback 3.5475110547977904 0.02186294125911703 0.6930631497852751
thorax -4.571788384057513 -0.030942360557096038 0.4884374118575998
lowerneck -8.192734085137493 -3.5428503394854065 -6.142291030584383
upperneck -3.588803255268285 -4.335179529179796 7.530504768164857
head 0.5394501086560597 -2.1785354938599397 3.166315574942049
rclavicle -3.5255450017187528E-15 2.093208555171192E-16
rhumerus -7.932737809709968 -2.6225411284170583 -69.5086790340625
rradius 11.980354185869352
rwrist 41.47598677204864
rhand -6.900669073978246 19.37030095829571
rfingers 7.125020000000034
rthumb 18.926298830656386 -10.29986134610198
lclavicle -7.188507407224087E-16 2.154658485488577E-16
lhumerus 12.040991538208651 -35.68548325452191 74.2407983421462
lradius 122.41621943851283
lwrist 49.30694482795945
lhand -24.057093158226337 41.95839530391875
lfingers 7.139248447780259
lthumb 2.5611299815635995 53.683182247384984
rfemur -34.63186142467929 4.744039457592064 7.428190314568244
rtibia 58.16868378369888
rfoot -3.2780176167279738 -8.177962379556636
rtoes -4.108997351558408
lfemur -6.606765538049867 -4.0035730436402375 -14.92401218762546
ltibia 29.307234360367715
lfoot -16.81334905554686 12.436036688486475
ltoes -2.883975129581562
252
root 0 0 0 -3.516448593743127 -38.772573720149055 1.5806984894024299
lowerback 14.739916202902123 0.11037411944097741 0.42438706238210844
upperback 3.3520711439110187 0.0028141170754860667 0.7444419983166399
thorax -4.577092220952909 -0.039853698984237185 0.46813133294781817
lowerneck -8.633581234890698 -3.3022242907664863 -5.91407424683893
upperneck -3.26011983708681 -3.9949050846257843 7.065230801178765
head 0.6827166720639655 -2.0098354105576703 2.993392638171433
rclavicle -3.5322933276309196E-15 2.181148709521484E-16
rhumerus -7.809049406960829 -2.7218694126066634 -69.44004390006944
rradius 12.055110787307143
rwrist 41.44233763882917
rhand -6.960994821045555 19.344459444500202
rfingers 7.125020000000034
rthumb 18.868039178693934 -10.326174716340017
lclavicle -8.26126798890283E-16 2.5078373889594984E-16
lhumerus 10.756872503736236 -36.400691914168796 75.2053005630257
lradius 122.04230195362203
lwrist 48.45754265380721
lhand -23.452787372671843 41.820543281788744
lfingers 7.13864702939119
lthumb 3.1444742511152146 53.79453750444577
rfemur -34.58478560117075 4.765923179593596 7.446701973958
rtibia 58.12141036154452
rfoot -3.300620115884648 -8.172116498628213
rtoes -4.113168587801295
lfemur -7.083250335074787 -3.888800161289266 -14.829779110714666
ltibia 30.010641102007654
lfoot -16.539691930836952 11.980708000097593
ltoes -3.153182106783074
253
root 0 0 0 -3.7362711158468156 -38.701307183203554 1.5897002978585242
lowerback 14.401545052654356 0.08537947162743409 0.5639495045286009
upperback 3.169564274621987 -0.0032219224773981647 0.7904123253630966
thorax -4.581726142464159 -0.042087023418861336 0.44096975431925545
lowerneck -9.051348954578106 -3.0739920890949666 -5.6863785905971
upperneck -2.884115492584396 -3.6711940991797225 6.605740737802763
head 0.8380306257448589 -1.8489236077888187 2.822034112803611
rclavicle -3.5346594885021123E-15 2.2561137166243865E-16
rhumerus -7.731688786193969 -2.772450952525757 -69.40366756916532
rradius 12.133169310125488
rwrist 41.39975930118844
rhand -7.010034567577776 19.31422550516104
rfingers 7.125020000000034
rthumb 18.82062832668418 -10.356501157736783
lclavicle -9.417141315089908E-16 2.8881970612554504E-16
lhumerus 9.234576146163562 -37.23677225756803 76.34410031022846
lradius 121.58056703763742
lwrist 47.437132626790756
lhand -22.7341753639256 41.65403374747988
lfingers 7.13789892921632
lthumb 3.837985786216832 53.92194477423961
rfemur -34.52245618143796 4.778275615266044 7.478909166577118
rtibia 58.07154629582244
rfoot -3.3216168043816268 -8.178399772507927
rtoes -4.101285810579636
lfemur -7.66785561343964 -3.7725496988014435 -14.70297475501172
ltibia 30.807593703141187
lfoot -16.179681219009733 11.45576266502357
ltoes -3.442428829910893
254
root 0 0 0 -3.885708751703899 -38.442787613603954 1.582045166088295
lowerback 14.099593419746991 0.07198264041606628 0.6985311333600388
upperback 3.0061210213870737 0.004135464828052493 0.8300272554104431
thorax -4.5866123798006555 -0.037558718252049594 0.40760290334019755
lowerneck -9.43504144577806 -2.8638495070541143 -5.465398678073478
upperneck -2.477389194085335 -3.372049927093717 6.164571168236881
head 0.9994250259828079 -1.6998529512278198 2.6569572136368906
rclavicle -3.5320010365382417E-15 2.311809776985167E-16
rhumerus -7.7121764813184495 -2.764273663780333 -69.40647279258397
rradius 12.21046003785959
rwrist 41.3495073791061
rhand -7.043235606329194 19.28084279022286
rfingers 7.125020000000034
rthumb 18.788447428931114 -10.389528413334979
lclavicle -1.067471147197553E-15 3.3018829426159977E-16
lhumerus 7.435145531985999 -38.20447674052758 77.68221918386843
lradius 121.00110317804935
lwrist 46.20685409538379
lhand -21.881138393535682 41.45103071039542
lfingers 7.136968550098296
lthumb 4.660915917282848 54.06833335291681
rfemur -34.43626592763955 4.7834851225135475 7.5287972397727065
rtibia 58.010401905770664
rfoot -3.3458187335970315 -8.198717567771704
rtoes -4.072940802001908
lfemur -8.384498605695248 -3.6576694267978676 -14.534847589135703
ltibia 31.709946601756467
lfoot -15.711994873021155 10.850743052909058
ltoes -3.751538016690583
255
root 0 0 0 -3.967374762555428 -38.027485053478074 1.5597497833811522
lowerback 13.841171402170337 0.07029211017396508 0.8268704034220049
upperback 2.864796924788993 0.02469628216996822 0.8629434522029877
thorax -4.592547909627417 -0.026473700309003423 0.36845914459825563
lowerneck -9.779401459423491 -2.6744317409525755 -5.255166896877287
upperneck -2.0573516701468897 -3.101266535646101 5.749780295889781
head 1.161291019727675 -1.5645776441625705 2.501226485097425
rclavicle -3.52443192364329E-15 2.3441938856980256E-16
rhumerus -7.750888855769061 -2.7000806791951906 -69.44739911561672
rradius 12.280807454839263
rwrist 41.296136361042315
rhand -7.0585034626948175 19.247288155520696
rfingers 7.125020000000034
rthumb 18.77351611243069 -10.42233550683213
lclavicle -1.2083654567440468E-15 3.7687800483594266E-16
lhumerus 5.296624387269521 -39.32626058078607 79.26165819626041
lradius 120.26445141356565
lwrist 44.71034121269549
lhand -20.861903269473167 41.200716363648155
lfingers 7.135804956994442
lthumb 5.643689089350286 54.23839446731264
rfemur -34.31522230620013 4.784769545806122 7.601396370966072
rtibia 57.92779278407229
rfoot -3.3794159127351477 -8.234216195534422
rtoes -4.028168707235836
lfemur -9.27573787957442 -3.5388547770276597 -14.313823665027922
ltibia 32.760300915162965
lfoot -15.11064752852478 10.141594153078376
ltoes -4.090681211959504
256
root 0 0 0 -3.9865361612665446 -37.488490283001596 1.5243857624164296
lowerback 13.62877154128455 0.08053701228029841 0.9496778801323902
upperback 2.7463740631997906 0.05875204249671384 0.8890061325931633
thorax -4.600138630781821 -0.008778595162325542 0.32306146029385885
lowerneck -10.08363917018187 -2.5058312428699416 -5.057107603377269
upperneck -1.6387011843498502 -2.859022848925063 5.364634074479083
head 1.319242727494529 -1.4432123287035012 2.3560989909720242
rclavicle -3.5127777424568172E-15 2.3515350623308415E-16
rhumerus -7.839866085601779 -2.5928415585341824 -69.51917693493638
rradius 12.335023851457336
rwrist 41.2477367372769
rhand -7.055171952811991 19.218439130866834
rfingers 7.125020000000034
rthumb 18.77649119054344 -10.450210909469046
lclavicle -1.3728745854082972E-15 4.3252622925759456E-16
lhumerus 2.7195932958591857 -40.64175414879236 81.15120219664742
lradius 119.31263678641429
lwrist 42.86127069046755
lhand -19.62589018022974 40.88678431026859
lfingers 7.134322578381929
lthumb 6.834720328723183 54.43907079686499
rfemur -34.146656798740906 4.784736990377996 7.703054052631066
rtibia 57.814186347514934
rfoot -3.428324933594178 -8.28548801727541
rtoes -3.9660156946656455
lfemur -10.41556897988642 -3.398503978721515 -14.023028675319454
ltibia 34.049330468276665
lfoot -14.339846349832676 9.282923468768963
ltoes -4.484763786440377
